<svg xmlns="http://www.w3.org/2000/svg" viewBox="0 0 960 470" width="960" height="470" font-family="Inter, 'Noto Sans Thai', Sarabun, Thonburi, 'Sukhumvit Set', 'Segoe UI', Roboto, sans-serif"><rect width="960" height="470" rx="16" fill="#0b1220"/><text x="28.0" y="44.0" font-size="24" fill="#e5ecf6" text-anchor="start" font-weight="700"><tspan x="28.0" dy="0.0">Location beats pattern</tspan></text><text x="28.0" y="72.0" font-size="15" fill="#8ea0bd" text-anchor="start" font-weight="400"><tspan x="28.0" dy="0.0">The same hammer means different things in different places.</tspan></text><rect x="28.0" y="90.0" width="440.0" height="360.0" rx="12" fill="#111a2e" fill-opacity="1" stroke="#23314f" stroke-width="1.5"/><line x1="40.0" y1="184.0" x2="456.0" y2="184.0" stroke="#1a2540" stroke-width="1" stroke-opacity="1" stroke-linecap="round"/><line x1="40.0" y1="238.0" x2="456.0" y2="238.0" stroke="#1a2540" stroke-width="1" stroke-opacity="1" stroke-linecap="round"/><line x1="40.0" y1="292.0" x2="456.0" y2="292.0" stroke="#1a2540" stroke-width="1" stroke-opacity="1" stroke-linecap="round"/><line x1="40.0" y1="346.0" x2="456.0" y2="346.0" stroke="#1a2540" stroke-width="1" stroke-opacity="1" stroke-linecap="round"/><rect x="40.0" y="355.6" width="416.0" height="29.5" rx="3" fill="#3b82f6" fill-opacity="0.16" stroke="#3b82f6" stroke-width="1"/><text x="48.0" y="401.1" font-size="12" fill="#3b82f6" text-anchor="start" font-weight="600"><tspan x="48.0" dy="0.0">Support (tested before)</tspan></text><line x1="49.9" y1="149.6" x2="49.9" y2="230.3" stroke="#ef4444" stroke-width="1.6" stroke-opacity="1" stroke-linecap="round"/><rect x="43.8" y="167.4" width="12.3" height="50.2" rx="1.5" fill="#ef4444" fill-opacity="1"/><line x1="69.7" y1="203.4" x2="69.7" y2="251.7" stroke="#ef4444" stroke-width="1.6" stroke-opacity="1" stroke-linecap="round"/><rect x="63.6" y="217.6" width="12.3" height="31.6" rx="1.5" fill="#ef4444" fill-opacity="1"/><line x1="89.5" y1="218.5" x2="89.5" y2="319.9" stroke="#ef4444" stroke-width="1.6" stroke-opacity="1" stroke-linecap="round"/><rect x="83.4" y="249.2" width="12.3" height="60.0" rx="1.5" fill="#ef4444" fill-opacity="1"/><line x1="109.3" y1="285.0" x2="109.3" y2="357.1" stroke="#ef4444" stroke-width="1.6" stroke-opacity="1" stroke-linecap="round"/><rect x="103.2" y="309.1" width="12.3" height="35.9" rx="1.5" fill="#ef4444" fill-opacity="1"/><line x1="129.1" y1="335.8" x2="129.1" y2="379.5" stroke="#ef4444" stroke-width="1.6" stroke-opacity="1" stroke-linecap="round"/><rect x="123.0" y="345.0" width="12.3" height="23.9" rx="1.5" fill="#ef4444" fill-opacity="1"/><line x1="149.0" y1="344.4" x2="149.0" y2="380.5" stroke="#22c55e" stroke-width="1.6" stroke-opacity="1" stroke-linecap="round"/><rect x="142.8" y="353.1" width="12.3" height="15.9" rx="1.5" fill="#22c55e" fill-opacity="1"/><line x1="168.8" y1="288.3" x2="168.8" y2="371.9" stroke="#22c55e" stroke-width="1.6" stroke-opacity="1" stroke-linecap="round"/><rect x="162.6" y="308.9" width="12.3" height="44.2" rx="1.5" fill="#22c55e" fill-opacity="1"/><line x1="188.6" y1="271.9" x2="188.6" y2="319.4" stroke="#22c55e" stroke-width="1.6" stroke-opacity="1" stroke-linecap="round"/><rect x="182.4" y="285.1" width="12.3" height="23.8" rx="1.5" fill="#22c55e" fill-opacity="1"/><line x1="208.4" y1="242.2" x2="208.4" y2="307.5" stroke="#22c55e" stroke-width="1.6" stroke-opacity="1" stroke-linecap="round"/><rect x="202.2" y="244.2" width="12.3" height="40.9" rx="1.5" fill="#22c55e" fill-opacity="1"/><line x1="228.2" y1="204.3" x2="228.2" y2="262.7" stroke="#22c55e" stroke-width="1.6" stroke-opacity="1" stroke-linecap="round"/><rect x="222.0" y="213.1" width="12.3" height="31.2" rx="1.5" fill="#22c55e" fill-opacity="1"/><line x1="248.0" y1="199.1" x2="248.0" y2="239.6" stroke="#ef4444" stroke-width="1.6" stroke-opacity="1" stroke-linecap="round"/><rect x="241.9" y="213.1" width="12.3" height="20.1" rx="1.5" fill="#ef4444" fill-opacity="1"/><line x1="267.8" y1="223.2" x2="267.8" y2="284.8" stroke="#ef4444" stroke-width="1.6" stroke-opacity="1" stroke-linecap="round"/><rect x="261.7" y="233.2" width="12.3" height="31.9" rx="1.5" fill="#ef4444" fill-opacity="1"/><line x1="287.6" y1="262.0" x2="287.6" y2="300.9" stroke="#ef4444" stroke-width="1.6" stroke-opacity="1" stroke-linecap="round"/><rect x="281.5" y="265.0" width="12.3" height="32.1" rx="1.5" fill="#ef4444" fill-opacity="1"/><line x1="307.4" y1="268.2" x2="307.4" y2="360.7" stroke="#ef4444" stroke-width="1.6" stroke-opacity="1" stroke-linecap="round"/><rect x="301.3" y="297.1" width="12.3" height="49.7" rx="1.5" fill="#ef4444" fill-opacity="1"/><line x1="327.2" y1="340.8" x2="327.2" y2="381.4" stroke="#22c55e" stroke-width="1.6" stroke-opacity="1" stroke-linecap="round"/><rect x="321.1" y="346.3" width="12.3" height="1.5" rx="1.5" fill="#22c55e" fill-opacity="1"/><rect x="316.1" y="335.8" width="22.3" height="50.6" rx="6" fill="none" fill-opacity="1" stroke="#14b8a6" stroke-width="2" stroke-dasharray="5 4"/><line x1="347.0" y1="332.4" x2="347.0" y2="376.8" stroke="#22c55e" stroke-width="1.6" stroke-opacity="1" stroke-linecap="round"/><rect x="340.9" y="339.5" width="12.3" height="6.8" rx="1.5" fill="#22c55e" fill-opacity="1"/><line x1="366.9" y1="272.3" x2="366.9" y2="358.3" stroke="#22c55e" stroke-width="1.6" stroke-opacity="1" stroke-linecap="round"/><rect x="360.7" y="296.8" width="12.3" height="42.7" rx="1.5" fill="#22c55e" fill-opacity="1"/><line x1="386.7" y1="225.3" x2="386.7" y2="325.4" stroke="#22c55e" stroke-width="1.6" stroke-opacity="1" stroke-linecap="round"/><rect x="380.5" y="250.2" width="12.3" height="46.6" rx="1.5" fill="#22c55e" fill-opacity="1"/><line x1="406.5" y1="215.2" x2="406.5" y2="268.4" stroke="#22c55e" stroke-width="1.6" stroke-opacity="1" stroke-linecap="round"/><rect x="400.3" y="219.5" width="12.3" height="30.7" rx="1.5" fill="#22c55e" fill-opacity="1"/><line x1="426.3" y1="148.6" x2="426.3" y2="236.2" stroke="#22c55e" stroke-width="1.6" stroke-opacity="1" stroke-linecap="round"/><rect x="420.1" y="174.3" width="12.3" height="45.2" rx="1.5" fill="#22c55e" fill-opacity="1"/><line x1="446.1" y1="149.0" x2="446.1" y2="185.7" stroke="#22c55e" stroke-width="1.6" stroke-opacity="1" stroke-linecap="round"/><rect x="440.0" y="158.4" width="12.3" height="15.9" rx="1.5" fill="#22c55e" fill-opacity="1"/><text x="321.2" y="403.1" font-size="13" fill="#14b8a6" text-anchor="start" font-weight="700"><tspan x="321.2" dy="0.0">↑ Hammer at support</tspan></text><text x="48.0" y="120.0" font-size="14" fill="#22c55e" text-anchor="start" font-weight="700"><tspan x="48.0" dy="0.0">✓ Works: sellers rejected at a level buyers defend</tspan></text><rect x="492.0" y="90.0" width="440.0" height="360.0" rx="12" fill="#111a2e" fill-opacity="1" stroke="#23314f" stroke-width="1.5"/><line x1="504.0" y1="184.0" x2="920.0" y2="184.0" stroke="#1a2540" stroke-width="1" stroke-opacity="1" stroke-linecap="round"/><line x1="504.0" y1="238.0" x2="920.0" y2="238.0" stroke="#1a2540" stroke-width="1" stroke-opacity="1" stroke-linecap="round"/><line x1="504.0" y1="292.0" x2="920.0" y2="292.0" stroke="#1a2540" stroke-width="1" stroke-opacity="1" stroke-linecap="round"/><line x1="504.0" y1="346.0" x2="920.0" y2="346.0" stroke="#1a2540" stroke-width="1" stroke-opacity="1" stroke-linecap="round"/><line x1="513.5" y1="148.6" x2="513.5" y2="182.0" stroke="#ef4444" stroke-width="1.6" stroke-opacity="1" stroke-linecap="round"/><rect x="507.6" y="156.8" width="11.7" height="16.4" rx="1.5" fill="#ef4444" fill-opacity="1"/><line x1="532.4" y1="166.0" x2="532.4" y2="196.2" stroke="#ef4444" stroke-width="1.6" stroke-opacity="1" stroke-linecap="round"/><rect x="526.5" y="173.3" width="11.7" height="13.9" rx="1.5" fill="#ef4444" fill-opacity="1"/><line x1="551.3" y1="178.6" x2="551.3" y2="233.1" stroke="#ef4444" stroke-width="1.6" stroke-opacity="1" stroke-linecap="round"/><rect x="545.4" y="187.2" width="11.7" height="29.4" rx="1.5" fill="#ef4444" fill-opacity="1"/><line x1="570.2" y1="209.6" x2="570.2" y2="228.1" stroke="#ef4444" stroke-width="1.6" stroke-opacity="1" stroke-linecap="round"/><rect x="564.3" y="216.7" width="11.7" height="10.2" rx="1.5" fill="#ef4444" fill-opacity="1"/><line x1="589.1" y1="223.9" x2="589.1" y2="246.7" stroke="#ef4444" stroke-width="1.6" stroke-opacity="1" stroke-linecap="round"/><rect x="583.2" y="226.8" width="11.7" height="15.3" rx="1.5" fill="#ef4444" fill-opacity="1"/><line x1="608.0" y1="233.7" x2="608.0" y2="243.7" stroke="#22c55e" stroke-width="1.6" stroke-opacity="1" stroke-linecap="round"/><rect x="602.1" y="234.1" width="11.7" height="8.1" rx="1.5" fill="#22c55e" fill-opacity="1"/><line x1="626.9" y1="218.5" x2="626.9" y2="239.2" stroke="#22c55e" stroke-width="1.6" stroke-opacity="1" stroke-linecap="round"/><rect x="621.0" y="224.6" width="11.7" height="9.5" rx="1.5" fill="#22c55e" fill-opacity="1"/><line x1="645.8" y1="210.7" x2="645.8" y2="225.9" stroke="#22c55e" stroke-width="1.6" stroke-opacity="1" stroke-linecap="round"/><rect x="640.0" y="213.7" width="11.7" height="10.8" rx="1.5" fill="#22c55e" fill-opacity="1"/><line x1="664.7" y1="212.3" x2="664.7" y2="226.3" stroke="#ef4444" stroke-width="1.6" stroke-opacity="1" stroke-linecap="round"/><rect x="658.9" y="213.7" width="11.7" height="12.1" rx="1.5" fill="#ef4444" fill-opacity="1"/><line x1="683.6" y1="223.5" x2="683.6" y2="241.7" stroke="#ef4444" stroke-width="1.6" stroke-opacity="1" stroke-linecap="round"/><rect x="677.8" y="225.8" width="11.7" height="13.5" rx="1.5" fill="#ef4444" fill-opacity="1"/><line x1="702.5" y1="230.5" x2="702.5" y2="257.8" stroke="#ef4444" stroke-width="1.6" stroke-opacity="1" stroke-linecap="round"/><rect x="696.7" y="239.4" width="11.7" height="15.2" rx="1.5" fill="#ef4444" fill-opacity="1"/><line x1="721.5" y1="249.2" x2="721.5" y2="283.3" stroke="#22c55e" stroke-width="1.6" stroke-opacity="1" stroke-linecap="round"/><rect x="715.6" y="251.0" width="11.7" height="3.6" rx="1.5" fill="#22c55e" fill-opacity="1"/><rect x="710.6" y="244.2" width="21.7" height="44.1" rx="6" fill="none" fill-opacity="1" stroke="#ef4444" stroke-width="2" stroke-dasharray="5 4"/><line x1="740.4" y1="257.1" x2="740.4" y2="307.1" stroke="#ef4444" stroke-width="1.6" stroke-opacity="1" stroke-linecap="round"/><rect x="734.5" y="251.0" width="11.7" height="45.5" rx="1.5" fill="#ef4444" fill-opacity="1"/><line x1="759.3" y1="290.2" x2="759.3" y2="309.5" stroke="#ef4444" stroke-width="1.6" stroke-opacity="1" stroke-linecap="round"/><rect x="753.4" y="296.5" width="11.7" height="8.9" rx="1.5" fill="#ef4444" fill-opacity="1"/><line x1="778.2" y1="300.7" x2="778.2" y2="306.0" stroke="#22c55e" stroke-width="1.6" stroke-opacity="1" stroke-linecap="round"/><rect x="772.3" y="301.4" width="11.7" height="4.0" rx="1.5" fill="#22c55e" fill-opacity="1"/><line x1="797.1" y1="292.7" x2="797.1" y2="304.5" stroke="#22c55e" stroke-width="1.6" stroke-opacity="1" stroke-linecap="round"/><rect x="791.2" y="294.3" width="11.7" height="7.1" rx="1.5" fill="#22c55e" fill-opacity="1"/><line x1="816.0" y1="282.6" x2="816.0" y2="296.6" stroke="#22c55e" stroke-width="1.6" stroke-opacity="1" stroke-linecap="round"/><rect x="810.1" y="284.8" width="11.7" height="9.5" rx="1.5" fill="#22c55e" fill-opacity="1"/><line x1="834.9" y1="274.0" x2="834.9" y2="311.6" stroke="#ef4444" stroke-width="1.6" stroke-opacity="1" stroke-linecap="round"/><rect x="829.0" y="284.8" width="11.7" height="20.1" rx="1.5" fill="#ef4444" fill-opacity="1"/><line x1="853.8" y1="298.5" x2="853.8" y2="333.9" stroke="#ef4444" stroke-width="1.6" stroke-opacity="1" stroke-linecap="round"/><rect x="848.0" y="305.0" width="11.7" height="19.7" rx="1.5" fill="#ef4444" fill-opacity="1"/><line x1="872.7" y1="310.4" x2="872.7" y2="349.0" stroke="#ef4444" stroke-width="1.6" stroke-opacity="1" stroke-linecap="round"/><rect x="866.9" y="324.7" width="11.7" height="23.3" rx="1.5" fill="#ef4444" fill-opacity="1"/><line x1="891.6" y1="341.1" x2="891.6" y2="358.7" stroke="#ef4444" stroke-width="1.6" stroke-opacity="1" stroke-linecap="round"/><rect x="885.8" y="348.0" width="11.7" height="10.2" rx="1.5" fill="#ef4444" fill-opacity="1"/><line x1="910.5" y1="353.4" x2="910.5" y2="381.4" stroke="#ef4444" stroke-width="1.6" stroke-opacity="1" stroke-linecap="round"/><rect x="904.7" y="358.2" width="11.7" height="18.3" rx="1.5" fill="#ef4444" fill-opacity="1"/><text x="705.5" y="288.3" font-size="13" fill="#ef4444" text-anchor="end" font-weight="700"><tspan x="705.5" dy="0.0">Hammer in mid-air</tspan></text><text x="512.0" y="120.0" font-size="14" fill="#ef4444" text-anchor="start" font-weight="700"><tspan x="512.0" dy="0.0">✗ Fails: no level, strong downtrend</tspan></text></svg>