<svg xmlns="http://www.w3.org/2000/svg" viewBox="0 0 960 500" width="960" height="500" font-family="Inter, 'Noto Sans Thai', Sarabun, Thonburi, 'Sukhumvit Set', 'Segoe UI', Roboto, sans-serif"><rect width="960" height="500" rx="16" fill="#0b1220"/><text x="28.0" y="44.0" font-size="24" fill="#e5ecf6" text-anchor="start" font-weight="700"><tspan x="28.0" dy="0.0">Investment Policy Statement: your rules for the long game</tspan></text><text x="28.0" y="72.0" font-size="15" fill="#8ea0bd" text-anchor="start" font-weight="400"><tspan x="28.0" dy="0.0">Written when calm, followed when markets are not.</tspan></text><rect x="28.0" y="96.0" width="219.0" height="182.0" rx="12" fill="#111a2e" fill-opacity="1" stroke="#23314f" stroke-width="1.5"/><rect x="28.0" y="96.0" width="5.0" height="182.0" rx="2" fill="#a855f7" fill-opacity="1"/><text x="48.0" y="126.0" font-size="15" fill="#a855f7" text-anchor="start" font-weight="700"><tspan x="48.0" dy="0.0">Goals &amp; horizon</tspan></text><text x="48.0" y="153.0" font-size="12" fill="#e5ecf6" text-anchor="start" font-weight="400"><tspan x="48.0" dy="0.0">What the money is for, and when</tspan></text><rect x="259.0" y="96.0" width="219.0" height="182.0" rx="12" fill="#111a2e" fill-opacity="1" stroke="#23314f" stroke-width="1.5"/><rect x="259.0" y="96.0" width="5.0" height="182.0" rx="2" fill="#3b82f6" fill-opacity="1"/><text x="279.0" y="126.0" font-size="15" fill="#3b82f6" text-anchor="start" font-weight="700"><tspan x="279.0" dy="0.0">Risk tolerance</tspan></text><text x="279.0" y="153.0" font-size="12" fill="#e5ecf6" text-anchor="start" font-weight="400"><tspan x="279.0" dy="0.0">Max drawdown you&#x27;ll hold through</tspan></text><rect x="490.0" y="96.0" width="219.0" height="182.0" rx="12" fill="#111a2e" fill-opacity="1" stroke="#23314f" stroke-width="1.5"/><rect x="490.0" y="96.0" width="5.0" height="182.0" rx="2" fill="#22c55e" fill-opacity="1"/><text x="510.0" y="126.0" font-size="15" fill="#22c55e" text-anchor="start" font-weight="700"><tspan x="510.0" dy="0.0">Target allocation</tspan></text><text x="510.0" y="153.0" font-size="12" fill="#e5ecf6" text-anchor="start" font-weight="400"><tspan x="510.0" dy="0.0">Asset classes, % weights, ranges</tspan></text><rect x="721.0" y="96.0" width="219.0" height="182.0" rx="12" fill="#111a2e" fill-opacity="1" stroke="#23314f" stroke-width="1.5"/><rect x="721.0" y="96.0" width="5.0" height="182.0" rx="2" fill="#14b8a6" fill-opacity="1"/><text x="741.0" y="126.0" font-size="15" fill="#14b8a6" text-anchor="start" font-weight="700"><tspan x="741.0" dy="0.0">Instruments &amp; costs</tspan></text><text x="741.0" y="153.0" font-size="12" fill="#e5ecf6" text-anchor="start" font-weight="400"><tspan x="741.0" dy="0.0">Which funds, max yearly fee</tspan></text><rect x="28.0" y="292.0" width="219.0" height="182.0" rx="12" fill="#111a2e" fill-opacity="1" stroke="#23314f" stroke-width="1.5"/><rect x="28.0" y="292.0" width="5.0" height="182.0" rx="2" fill="#f59e0b" fill-opacity="1"/><text x="48.0" y="322.0" font-size="15" fill="#f59e0b" text-anchor="start" font-weight="700"><tspan x="48.0" dy="0.0">Contributions</tspan></text><text x="48.0" y="349.0" font-size="12" fill="#e5ecf6" text-anchor="start" font-weight="400"><tspan x="48.0" dy="0.0">Amount, frequency, automation</tspan></text><rect x="259.0" y="292.0" width="219.0" height="182.0" rx="12" fill="#111a2e" fill-opacity="1" stroke="#23314f" stroke-width="1.5"/><rect x="259.0" y="292.0" width="5.0" height="182.0" rx="2" fill="#ec4899" fill-opacity="1"/><text x="279.0" y="322.0" font-size="15" fill="#ec4899" text-anchor="start" font-weight="700"><tspan x="279.0" dy="0.0">Rebalancing rule</tspan></text><text x="279.0" y="349.0" font-size="12" fill="#e5ecf6" text-anchor="start" font-weight="400"><tspan x="279.0" dy="0.0">Calendar and/or ±5% bands</tspan></text><rect x="490.0" y="292.0" width="219.0" height="182.0" rx="12" fill="#111a2e" fill-opacity="1" stroke="#23314f" stroke-width="1.5"/><rect x="490.0" y="292.0" width="5.0" height="182.0" rx="2" fill="#ef4444" fill-opacity="1"/><text x="510.0" y="322.0" font-size="15" fill="#ef4444" text-anchor="start" font-weight="700"><tspan x="510.0" dy="0.0">Crisis plan</tspan></text><text x="510.0" y="349.0" font-size="12" fill="#e5ecf6" text-anchor="start" font-weight="400"><tspan x="510.0" dy="0.0">What you do in a −30% market</tspan></text><rect x="721.0" y="292.0" width="219.0" height="182.0" rx="12" fill="#111a2e" fill-opacity="1" stroke="#23314f" stroke-width="1.5"/><rect x="721.0" y="292.0" width="5.0" height="182.0" rx="2" fill="#8ea0bd" fill-opacity="1"/><text x="741.0" y="322.0" font-size="15" fill="#8ea0bd" text-anchor="start" font-weight="700"><tspan x="741.0" dy="0.0">Review</tspan></text><text x="741.0" y="349.0" font-size="12" fill="#e5ecf6" text-anchor="start" font-weight="400"><tspan x="741.0" dy="0.0">Yearly, or on life changes</tspan></text></svg>