<svg xmlns="http://www.w3.org/2000/svg" viewBox="0 0 960 500" width="960" height="500" font-family="Inter, 'Noto Sans Thai', Sarabun, Thonburi, 'Sukhumvit Set', 'Segoe UI', Roboto, sans-serif"><rect width="960" height="500" rx="16" fill="#0b1220"/><text x="28.0" y="44.0" font-size="24" fill="#e5ecf6" text-anchor="start" font-weight="700"><tspan x="28.0" dy="0.0">EUR/CHF, November 2014 – March 2015 (ECB daily reference rate)</tspan></text><text x="28.0" y="72.0" font-size="15" fill="#8ea0bd" text-anchor="start" font-weight="400"><tspan x="28.0" dy="0.0">The SNB held a 1.20 floor from 6 Sep 2011. On 15 Jan 2015 it dropped it without warning.</tspan></text><rect x="28.0" y="86.0" width="904.0" height="380.0" rx="12" fill="#111a2e" fill-opacity="1" stroke="#23314f" stroke-width="1.5"/><line x1="70.0" y1="394.4" x2="910.0" y2="394.4" stroke="#1a2540" stroke-width="1" stroke-opacity="1" stroke-linecap="round"/><text x="62.0" y="398.4" font-size="11" fill="#8ea0bd" text-anchor="end" font-weight="400"><tspan x="62.0" dy="0.0">0.85</tspan></text><line x1="70.0" y1="323.3" x2="910.0" y2="323.3" stroke="#1a2540" stroke-width="1" stroke-opacity="1" stroke-linecap="round"/><text x="62.0" y="327.3" font-size="11" fill="#8ea0bd" text-anchor="end" font-weight="400"><tspan x="62.0" dy="0.0">0.95</tspan></text><line x1="70.0" y1="252.2" x2="910.0" y2="252.2" stroke="#1a2540" stroke-width="1" stroke-opacity="1" stroke-linecap="round"/><text x="62.0" y="256.2" font-size="11" fill="#8ea0bd" text-anchor="end" font-weight="400"><tspan x="62.0" dy="0.0">1.05</tspan></text><line x1="70.0" y1="181.1" x2="910.0" y2="181.1" stroke="#1a2540" stroke-width="1" stroke-opacity="1" stroke-linecap="round"/><text x="62.0" y="185.1" font-size="11" fill="#8ea0bd" text-anchor="end" font-weight="400"><tspan x="62.0" dy="0.0">1.15</tspan></text><line x1="70.0" y1="110.0" x2="910.0" y2="110.0" stroke="#1a2540" stroke-width="1" stroke-opacity="1" stroke-linecap="round"/><text x="62.0" y="114.0" font-size="11" fill="#8ea0bd" text-anchor="end" font-weight="400"><tspan x="62.0" dy="0.0">1.25</tspan></text><line x1="70.0" y1="145.6" x2="910.0" y2="145.6" stroke="#f59e0b" stroke-width="1.5" stroke-opacity="1" stroke-dasharray="6 4" stroke-linecap="round"/><text x="76.0" y="137.6" font-size="12" fill="#f59e0b" text-anchor="start" font-weight="700"><tspan x="76.0" dy="0.0">SNB floor 1.20</tspan></text><polyline points="70.0,140.8 78.1,141.7 86.2,141.6 94.2,142.5 102.3,142.4 110.4,142.7 118.5,143.6 126.5,143.8 134.6,143.9 142.7,144.3 150.8,144.5 158.8,144.6 166.9,144.6 175.0,144.6 183.1,144.6 191.2,143.8 199.2,143.6 207.3,143.4 215.4,143.7 223.5,144.0 231.5,144.3 239.6,143.6 247.7,142.7 255.8,143.3 263.8,143.1 271.9,144.1 280.0,143.9 288.1,144.1 296.2,143.8 304.2,144.7 312.3,144.8 320.4,144.8 328.5,144.9 336.5,144.8 344.6,141.9 352.7,142.8 360.8,143.1 368.8,143.3 376.9,143.8 385.0,143.6 393.1,143.6 401.2,143.8 409.2,144.0 417.3,144.4 425.4,144.6 433.5,144.8 441.5,144.8 449.6,144.8 457.7,144.8 465.8,144.8 473.8,144.8 481.9,267.9 490.0,278.7 498.1,279.2 506.2,281.6 514.2,288.0 522.3,291.8 530.4,300.9 538.5,286.8 546.5,275.7 554.6,270.6 562.7,261.3 570.8,254.5 578.8,250.9 586.9,250.4 595.0,245.0 603.1,246.0 611.2,249.8 619.2,257.3 627.3,255.3 635.4,254.7 643.5,248.0 651.5,246.8 659.6,243.3 667.7,242.9 675.8,237.5 683.8,231.2 691.9,236.7 700.0,236.1 708.1,234.1 716.2,232.8 724.2,234.8 732.3,242.6 740.4,236.3 748.5,235.4 756.5,238.4 764.6,238.2 772.7,238.0 780.8,238.6 788.8,237.8 796.9,241.2 805.0,242.6 813.1,241.7 821.2,244.0 829.2,240.8 837.3,243.2 845.4,245.5 853.5,248.5 861.5,247.9 869.6,252.9 877.7,251.0 885.8,252.4 893.8,253.9 901.9,256.6 910.0,254.9" fill="none" stroke="#3b82f6" stroke-width="2.5" stroke-opacity="1" stroke-linejoin="round" stroke-linecap="round"/><circle cx="481.9" cy="267.9" r="6" fill="#ef4444"/><text x="491.9" y="271.9" font-size="12" fill="#ef4444" text-anchor="start" font-weight="700"><tspan x="491.9" dy="0.0">15 Jan fixing 1.028</tspan></text><line x1="481.9" y1="145.6" x2="481.9" y2="394.4" stroke="#ef4444" stroke-width="2" stroke-opacity="1" stroke-dasharray="3 3" stroke-linecap="round"/><circle cx="481.9" cy="394.4" r="5" fill="#ef4444"/><text x="491.9" y="398.4" font-size="12" fill="#ef4444" text-anchor="start" font-weight="700"><tspan x="491.9" dy="0.0">intraday low ≈ 0.85 within minutes (≈ −30%)</tspan></text><text x="78.1" y="452.0" font-size="11" fill="#8ea0bd" text-anchor="middle" font-weight="400"><tspan x="78.1" dy="0.0">2014-11</tspan></text><text x="239.6" y="452.0" font-size="11" fill="#8ea0bd" text-anchor="middle" font-weight="400"><tspan x="239.6" dy="0.0">2014-12</tspan></text><text x="409.2" y="452.0" font-size="11" fill="#8ea0bd" text-anchor="middle" font-weight="400"><tspan x="409.2" dy="0.0">2015-01</tspan></text><text x="578.8" y="452.0" font-size="11" fill="#8ea0bd" text-anchor="middle" font-weight="400"><tspan x="578.8" dy="0.0">2015-02</tspan></text><text x="740.4" y="452.0" font-size="11" fill="#8ea0bd" text-anchor="middle" font-weight="400"><tspan x="740.4" dy="0.0">2015-03</tspan></text><text x="40.0" y="488.0" font-size="11" fill="#5b6b88" text-anchor="start" font-weight="400"><tspan x="40.0" dy="0.0">Daily data: Frankfurter / ECB reference rates (fetched Oct 2026). Intraday low: reports of 15 Jan 2015 (e.g. Forbes, CNBC).</tspan></text></svg>