<svg xmlns="http://www.w3.org/2000/svg" viewBox="0 0 960 470" width="960" height="470" font-family="Inter, 'Noto Sans Thai', Sarabun, Thonburi, 'Sukhumvit Set', 'Segoe UI', Roboto, sans-serif"><rect width="960" height="470" rx="16" fill="#0b1220"/><text x="28.0" y="44.0" font-size="24" fill="#e5ecf6" text-anchor="start" font-weight="700"><tspan x="28.0" dy="0.0">เบรกจริงหรือหลอก? ดูที่ราคาปิด</tspan></text><text x="28.0" y="72.0" font-size="15" fill="#8ea0bd" text-anchor="start" font-weight="400"><tspan x="28.0" dy="0.0">ไส้เทียนแค่หยั่งเชิง ราคาปิดคือการยืนยัน</tspan></text><rect x="28.0" y="90.0" width="444.0" height="360.0" rx="12" fill="#111a2e" fill-opacity="1" stroke="#23314f" stroke-width="1.5"/><text x="46.0" y="120.0" font-size="16" fill="#22c55e" text-anchor="start" font-weight="700"><tspan x="46.0" dy="0.0">✓ ยอมรับ: ตัวแท่งปิดเหนือแนว</tspan></text><line x1="44.0" y1="235.1" x2="456.0" y2="235.1" stroke="#f59e0b" stroke-width="1.6" stroke-opacity="1" stroke-dasharray="6 5" stroke-linecap="round"/><text x="48.0" y="228.1" font-size="12" fill="#f59e0b" text-anchor="start" font-weight="600"><tspan x="48.0" dy="0.0">แนวต้าน</tspan></text><line x1="53.4" y1="285.7" x2="53.4" y2="313.3" stroke="#22c55e" stroke-width="1.6" stroke-opacity="1" stroke-linecap="round"/><rect x="47.6" y="290.5" width="11.6" height="16.0" rx="1.5" fill="#22c55e" fill-opacity="1"/><line x1="72.1" y1="273.1" x2="72.1" y2="296.0" stroke="#22c55e" stroke-width="1.6" stroke-opacity="1" stroke-linecap="round"/><rect x="66.3" y="275.8" width="11.6" height="14.7" rx="1.5" fill="#22c55e" fill-opacity="1"/><line x1="90.8" y1="255.0" x2="90.8" y2="279.7" stroke="#22c55e" stroke-width="1.6" stroke-opacity="1" stroke-linecap="round"/><rect x="85.0" y="258.4" width="11.6" height="17.4" rx="1.5" fill="#22c55e" fill-opacity="1"/><line x1="109.5" y1="242.3" x2="109.5" y2="262.8" stroke="#22c55e" stroke-width="1.6" stroke-opacity="1" stroke-linecap="round"/><rect x="103.7" y="246.3" width="11.6" height="12.2" rx="1.5" fill="#22c55e" fill-opacity="1"/><line x1="128.3" y1="244.2" x2="128.3" y2="256.8" stroke="#ef4444" stroke-width="1.6" stroke-opacity="1" stroke-linecap="round"/><rect x="122.5" y="246.3" width="11.6" height="7.4" rx="1.5" fill="#ef4444" fill-opacity="1"/><line x1="147.0" y1="249.6" x2="147.0" y2="273.7" stroke="#ef4444" stroke-width="1.6" stroke-opacity="1" stroke-linecap="round"/><rect x="141.2" y="253.7" width="11.6" height="18.2" rx="1.5" fill="#ef4444" fill-opacity="1"/><line x1="165.7" y1="270.1" x2="165.7" y2="285.1" stroke="#ef4444" stroke-width="1.6" stroke-opacity="1" stroke-linecap="round"/><rect x="159.9" y="272.0" width="11.6" height="9.5" rx="1.5" fill="#ef4444" fill-opacity="1"/><line x1="184.5" y1="263.5" x2="184.5" y2="283.2" stroke="#22c55e" stroke-width="1.6" stroke-opacity="1" stroke-linecap="round"/><rect x="178.6" y="266.4" width="11.6" height="15.1" rx="1.5" fill="#22c55e" fill-opacity="1"/><line x1="203.2" y1="248.9" x2="203.2" y2="270.8" stroke="#22c55e" stroke-width="1.6" stroke-opacity="1" stroke-linecap="round"/><rect x="197.4" y="254.1" width="11.6" height="12.3" rx="1.5" fill="#22c55e" fill-opacity="1"/><line x1="221.9" y1="239.9" x2="221.9" y2="255.8" stroke="#22c55e" stroke-width="1.6" stroke-opacity="1" stroke-linecap="round"/><rect x="216.1" y="243.7" width="11.6" height="10.4" rx="1.5" fill="#22c55e" fill-opacity="1"/><line x1="240.6" y1="242.7" x2="240.6" y2="253.7" stroke="#ef4444" stroke-width="1.6" stroke-opacity="1" stroke-linecap="round"/><rect x="234.8" y="243.7" width="11.6" height="9.5" rx="1.5" fill="#ef4444" fill-opacity="1"/><line x1="259.4" y1="252.7" x2="259.4" y2="268.9" stroke="#ef4444" stroke-width="1.6" stroke-opacity="1" stroke-linecap="round"/><rect x="253.6" y="253.2" width="11.6" height="12.9" rx="1.5" fill="#ef4444" fill-opacity="1"/><line x1="278.1" y1="261.1" x2="278.1" y2="277.9" stroke="#ef4444" stroke-width="1.6" stroke-opacity="1" stroke-linecap="round"/><rect x="272.3" y="266.1" width="11.6" height="8.7" rx="1.5" fill="#ef4444" fill-opacity="1"/><line x1="296.8" y1="204.2" x2="296.8" y2="278.3" stroke="#22c55e" stroke-width="1.6" stroke-opacity="1" stroke-linecap="round"/><rect x="291.0" y="209.0" width="11.6" height="65.8" rx="1.5" fill="#22c55e" fill-opacity="1"/><rect x="286.0" y="199.2" width="21.6" height="84.1" rx="6" fill="none" fill-opacity="1" stroke="#22c55e" stroke-width="2" stroke-dasharray="5 4"/><line x1="315.5" y1="192.3" x2="315.5" y2="209.0" stroke="#22c55e" stroke-width="1.6" stroke-opacity="1" stroke-linecap="round"/><rect x="309.7" y="194.4" width="11.6" height="14.6" rx="1.5" fill="#22c55e" fill-opacity="1"/><line x1="334.3" y1="192.8" x2="334.3" y2="206.2" stroke="#ef4444" stroke-width="1.6" stroke-opacity="1" stroke-linecap="round"/><rect x="328.5" y="194.4" width="11.6" height="10.7" rx="1.5" fill="#ef4444" fill-opacity="1"/><line x1="353.0" y1="200.4" x2="353.0" y2="214.4" stroke="#ef4444" stroke-width="1.6" stroke-opacity="1" stroke-linecap="round"/><rect x="347.2" y="205.1" width="11.6" height="8.3" rx="1.5" fill="#ef4444" fill-opacity="1"/><line x1="371.7" y1="210.3" x2="371.7" y2="228.0" stroke="#ef4444" stroke-width="1.6" stroke-opacity="1" stroke-linecap="round"/><rect x="365.9" y="213.4" width="11.6" height="11.7" rx="1.5" fill="#ef4444" fill-opacity="1"/><line x1="390.5" y1="204.7" x2="390.5" y2="227.5" stroke="#22c55e" stroke-width="1.6" stroke-opacity="1" stroke-linecap="round"/><rect x="384.6" y="208.0" width="11.6" height="17.0" rx="1.5" fill="#22c55e" fill-opacity="1"/><line x1="409.2" y1="194.1" x2="409.2" y2="208.9" stroke="#22c55e" stroke-width="1.6" stroke-opacity="1" stroke-linecap="round"/><rect x="403.4" y="195.9" width="11.6" height="12.1" rx="1.5" fill="#22c55e" fill-opacity="1"/><line x1="427.9" y1="168.9" x2="427.9" y2="202.6" stroke="#22c55e" stroke-width="1.6" stroke-opacity="1" stroke-linecap="round"/><rect x="422.1" y="175.0" width="11.6" height="20.9" rx="1.5" fill="#22c55e" fill-opacity="1"/><line x1="446.6" y1="157.8" x2="446.6" y2="177.7" stroke="#22c55e" stroke-width="1.6" stroke-opacity="1" stroke-linecap="round"/><rect x="440.8" y="162.2" width="11.6" height="12.8" rx="1.5" fill="#22c55e" fill-opacity="1"/><text x="46.0" y="400.0" font-size="13" fill="#8ea0bd" text-anchor="start" font-weight="400"><tspan x="46.0" dy="0.0">ผู้ซื้อยอมรับราคาที่สูงขึ้น</tspan><tspan x="46.0" dy="17.6">แนวถูกเบรกแล้ว → รอดูการทดสอบซ้ำ</tspan></text><rect x="488.0" y="90.0" width="444.0" height="360.0" rx="12" fill="#111a2e" fill-opacity="1" stroke="#23314f" stroke-width="1.5"/><text x="506.0" y="120.0" font-size="16" fill="#ef4444" text-anchor="start" font-weight="700"><tspan x="506.0" dy="0.0">✗ ปฏิเสธ: ไส้ทะลุ แต่ปิดกลับเข้ากรอบ</tspan></text><line x1="504.0" y1="235.1" x2="916.0" y2="235.1" stroke="#f59e0b" stroke-width="1.6" stroke-opacity="1" stroke-dasharray="6 5" stroke-linecap="round"/><text x="508.0" y="228.1" font-size="12" fill="#f59e0b" text-anchor="start" font-weight="600"><tspan x="508.0" dy="0.0">แนวต้าน</tspan></text><line x1="513.4" y1="285.7" x2="513.4" y2="313.3" stroke="#22c55e" stroke-width="1.6" stroke-opacity="1" stroke-linecap="round"/><rect x="507.6" y="290.5" width="11.6" height="16.0" rx="1.5" fill="#22c55e" fill-opacity="1"/><line x1="532.1" y1="273.1" x2="532.1" y2="296.0" stroke="#22c55e" stroke-width="1.6" stroke-opacity="1" stroke-linecap="round"/><rect x="526.3" y="275.8" width="11.6" height="14.7" rx="1.5" fill="#22c55e" fill-opacity="1"/><line x1="550.8" y1="255.0" x2="550.8" y2="279.7" stroke="#22c55e" stroke-width="1.6" stroke-opacity="1" stroke-linecap="round"/><rect x="545.0" y="258.4" width="11.6" height="17.4" rx="1.5" fill="#22c55e" fill-opacity="1"/><line x1="569.5" y1="242.3" x2="569.5" y2="262.8" stroke="#22c55e" stroke-width="1.6" stroke-opacity="1" stroke-linecap="round"/><rect x="563.7" y="246.3" width="11.6" height="12.2" rx="1.5" fill="#22c55e" fill-opacity="1"/><line x1="588.3" y1="244.2" x2="588.3" y2="256.8" stroke="#ef4444" stroke-width="1.6" stroke-opacity="1" stroke-linecap="round"/><rect x="582.5" y="246.3" width="11.6" height="7.4" rx="1.5" fill="#ef4444" fill-opacity="1"/><line x1="607.0" y1="249.6" x2="607.0" y2="273.7" stroke="#ef4444" stroke-width="1.6" stroke-opacity="1" stroke-linecap="round"/><rect x="601.2" y="253.7" width="11.6" height="18.2" rx="1.5" fill="#ef4444" fill-opacity="1"/><line x1="625.7" y1="270.1" x2="625.7" y2="285.1" stroke="#ef4444" stroke-width="1.6" stroke-opacity="1" stroke-linecap="round"/><rect x="619.9" y="272.0" width="11.6" height="9.5" rx="1.5" fill="#ef4444" fill-opacity="1"/><line x1="644.5" y1="263.5" x2="644.5" y2="283.2" stroke="#22c55e" stroke-width="1.6" stroke-opacity="1" stroke-linecap="round"/><rect x="638.6" y="266.4" width="11.6" height="15.1" rx="1.5" fill="#22c55e" fill-opacity="1"/><line x1="663.2" y1="248.9" x2="663.2" y2="270.8" stroke="#22c55e" stroke-width="1.6" stroke-opacity="1" stroke-linecap="round"/><rect x="657.4" y="254.1" width="11.6" height="12.3" rx="1.5" fill="#22c55e" fill-opacity="1"/><line x1="681.9" y1="239.9" x2="681.9" y2="255.8" stroke="#22c55e" stroke-width="1.6" stroke-opacity="1" stroke-linecap="round"/><rect x="676.1" y="243.7" width="11.6" height="10.4" rx="1.5" fill="#22c55e" fill-opacity="1"/><line x1="700.6" y1="242.7" x2="700.6" y2="253.7" stroke="#ef4444" stroke-width="1.6" stroke-opacity="1" stroke-linecap="round"/><rect x="694.8" y="243.7" width="11.6" height="9.5" rx="1.5" fill="#ef4444" fill-opacity="1"/><line x1="719.4" y1="252.7" x2="719.4" y2="268.9" stroke="#ef4444" stroke-width="1.6" stroke-opacity="1" stroke-linecap="round"/><rect x="713.6" y="253.2" width="11.6" height="12.9" rx="1.5" fill="#ef4444" fill-opacity="1"/><line x1="738.1" y1="261.1" x2="738.1" y2="277.9" stroke="#ef4444" stroke-width="1.6" stroke-opacity="1" stroke-linecap="round"/><rect x="732.3" y="266.1" width="11.6" height="8.7" rx="1.5" fill="#ef4444" fill-opacity="1"/><line x1="756.8" y1="213.7" x2="756.8" y2="278.3" stroke="#22c55e" stroke-width="1.6" stroke-opacity="1" stroke-linecap="round"/><rect x="751.0" y="254.2" width="11.6" height="20.6" rx="1.5" fill="#22c55e" fill-opacity="1"/><rect x="746.0" y="208.7" width="21.6" height="74.6" rx="6" fill="none" fill-opacity="1" stroke="#ef4444" stroke-width="2" stroke-dasharray="5 4"/><line x1="775.5" y1="245.9" x2="775.5" y2="270.1" stroke="#ef4444" stroke-width="1.6" stroke-opacity="1" stroke-linecap="round"/><rect x="769.7" y="254.2" width="11.6" height="9.3" rx="1.5" fill="#ef4444" fill-opacity="1"/><line x1="794.3" y1="263.4" x2="794.3" y2="288.9" stroke="#ef4444" stroke-width="1.6" stroke-opacity="1" stroke-linecap="round"/><rect x="788.5" y="263.4" width="11.6" height="25.5" rx="1.5" fill="#ef4444" fill-opacity="1"/><line x1="813.0" y1="288.9" x2="813.0" y2="300.5" stroke="#ef4444" stroke-width="1.6" stroke-opacity="1" stroke-linecap="round"/><rect x="807.2" y="288.9" width="11.6" height="6.9" rx="1.5" fill="#ef4444" fill-opacity="1"/><line x1="831.7" y1="294.7" x2="831.7" y2="296.7" stroke="#22c55e" stroke-width="1.6" stroke-opacity="1" stroke-linecap="round"/><rect x="825.9" y="295.4" width="11.6" height="1.5" rx="1.5" fill="#22c55e" fill-opacity="1"/><line x1="850.5" y1="288.6" x2="850.5" y2="297.4" stroke="#22c55e" stroke-width="1.6" stroke-opacity="1" stroke-linecap="round"/><rect x="844.6" y="290.1" width="11.6" height="5.3" rx="1.5" fill="#22c55e" fill-opacity="1"/><line x1="869.2" y1="288.9" x2="869.2" y2="300.3" stroke="#ef4444" stroke-width="1.6" stroke-opacity="1" stroke-linecap="round"/><rect x="863.4" y="290.1" width="11.6" height="10.1" rx="1.5" fill="#ef4444" fill-opacity="1"/><line x1="887.9" y1="298.3" x2="887.9" y2="324.4" stroke="#ef4444" stroke-width="1.6" stroke-opacity="1" stroke-linecap="round"/><rect x="882.1" y="300.3" width="11.6" height="18.4" rx="1.5" fill="#ef4444" fill-opacity="1"/><line x1="906.6" y1="313.8" x2="906.6" y2="336.2" stroke="#ef4444" stroke-width="1.6" stroke-opacity="1" stroke-linecap="round"/><rect x="900.8" y="318.6" width="11.6" height="13.6" rx="1.5" fill="#ef4444" fill-opacity="1"/><text x="506.0" y="400.0" font-size="13" fill="#8ea0bd" text-anchor="start" font-weight="400"><tspan x="506.0" dy="0.0">คนที่ไล่ซื้อตอนเบรกติดดอย</tspan><tspan x="506.0" dy="17.6">มักเป็นการกวาดสภาพคล่อง (เฟส 5)</tspan></text></svg>