<svg xmlns="http://www.w3.org/2000/svg" viewBox="0 0 960 470" width="960" height="470" font-family="Inter, 'Noto Sans Thai', Sarabun, Thonburi, 'Sukhumvit Set', 'Segoe UI', Roboto, sans-serif"><rect width="960" height="470" rx="16" fill="#0b1220"/><text x="28.0" y="44.0" font-size="24" fill="#e5ecf6" text-anchor="start" font-weight="700"><tspan x="28.0" dy="0.0">อะไรนับเป็นสวิง?</tspan></text><text x="28.0" y="72.0" font-size="15" fill="#8ea0bd" text-anchor="start" font-weight="400"><tspan x="28.0" dy="0.0">สวิงคือจุดกลับตัวที่ยืนได้ มาร์กเฉพาะสวิงหลัก และเมินสัญญาณรบกวนภายในขา</tspan></text><rect x="28.0" y="90.0" width="330.0" height="360.0" rx="12" fill="#111a2e" fill-opacity="1" stroke="#23314f" stroke-width="1.5"/><text x="46.0" y="120.0" font-size="17" fill="#3b82f6" text-anchor="start" font-weight="700"><tspan x="46.0" dy="0.0">กฎ 5 แท่ง</tspan></text><line x1="63.0" y1="207.6" x2="63.0" y2="251.7" stroke="#22c55e" stroke-width="1.6" stroke-opacity="1" stroke-linecap="round"/><rect x="54.9" y="214.4" width="16.1" height="27.1" rx="1.5" fill="#22c55e" fill-opacity="1"/><line x1="89.0" y1="183.9" x2="89.0" y2="221.2" stroke="#22c55e" stroke-width="1.6" stroke-opacity="1" stroke-linecap="round"/><rect x="80.9" y="190.7" width="16.1" height="23.7" rx="1.5" fill="#22c55e" fill-opacity="1"/><line x1="115.0" y1="148.3" x2="115.0" y2="197.5" stroke="#22c55e" stroke-width="1.6" stroke-opacity="1" stroke-linecap="round"/><rect x="106.9" y="173.7" width="16.1" height="17.0" rx="1.5" fill="#22c55e" fill-opacity="1"/><rect x="101.9" y="143.3" width="26.1" height="59.2" rx="6" fill="none" fill-opacity="1" stroke="#ef4444" stroke-width="2" stroke-dasharray="5 4"/><line x1="141.0" y1="166.9" x2="141.0" y2="204.2" stroke="#ef4444" stroke-width="1.6" stroke-opacity="1" stroke-linecap="round"/><rect x="132.9" y="173.7" width="16.1" height="23.7" rx="1.5" fill="#ef4444" fill-opacity="1"/><line x1="167.0" y1="190.7" x2="167.0" y2="228.0" stroke="#ef4444" stroke-width="1.6" stroke-opacity="1" stroke-linecap="round"/><rect x="158.9" y="197.5" width="16.1" height="23.7" rx="1.5" fill="#ef4444" fill-opacity="1"/><line x1="50.0" y1="148.3" x2="180.0" y2="148.3" stroke="#ef4444" stroke-width="1.6" stroke-opacity="1" stroke-dasharray="3 3" stroke-linecap="round"/><text x="115.0" y="138.3" font-size="12" fill="#ef4444" text-anchor="middle" font-weight="700"><tspan x="115.0" dy="0.0">Swing High</tspan></text><line x1="213.0" y1="163.6" x2="213.0" y2="201.1" stroke="#ef4444" stroke-width="1.6" stroke-opacity="1" stroke-linecap="round"/><rect x="204.9" y="172.5" width="16.1" height="21.4" rx="1.5" fill="#ef4444" fill-opacity="1"/><line x1="239.0" y1="186.8" x2="239.0" y2="222.5" stroke="#ef4444" stroke-width="1.6" stroke-opacity="1" stroke-linecap="round"/><rect x="230.9" y="193.9" width="16.1" height="21.4" rx="1.5" fill="#ef4444" fill-opacity="1"/><line x1="265.0" y1="204.6" x2="265.0" y2="261.7" stroke="#22c55e" stroke-width="1.6" stroke-opacity="1" stroke-linecap="round"/><rect x="256.9" y="211.8" width="16.1" height="3.6" rx="1.5" fill="#22c55e" fill-opacity="1"/><rect x="251.9" y="199.6" width="26.1" height="67.1" rx="6" fill="none" fill-opacity="1" stroke="#22c55e" stroke-width="2" stroke-dasharray="5 4"/><line x1="291.0" y1="183.2" x2="291.0" y2="218.9" stroke="#22c55e" stroke-width="1.6" stroke-opacity="1" stroke-linecap="round"/><rect x="282.9" y="190.4" width="16.1" height="21.4" rx="1.5" fill="#22c55e" fill-opacity="1"/><line x1="317.0" y1="158.3" x2="317.0" y2="195.7" stroke="#22c55e" stroke-width="1.6" stroke-opacity="1" stroke-linecap="round"/><rect x="308.9" y="165.4" width="16.1" height="25.0" rx="1.5" fill="#22c55e" fill-opacity="1"/><line x1="200.0" y1="261.7" x2="330.0" y2="261.7" stroke="#22c55e" stroke-width="1.6" stroke-opacity="1" stroke-dasharray="3 3" stroke-linecap="round"/><text x="265.0" y="287.7" font-size="12" fill="#22c55e" text-anchor="middle" font-weight="700"><tspan x="265.0" dy="0.0">Swing Low</tspan></text><text x="46.0" y="330.0" font-size="13" fill="#e5ecf6" text-anchor="start" font-weight="400"><tspan x="46.0" dy="0.0">Swing High คือแท่งที่จุดสูงสุด</tspan><tspan x="46.0" dy="17.6">สูงกว่าจุดสูงของ 2 แท่งทั้งซ้ายและขวา</tspan><tspan x="46.0" dy="17.6">Swing Low คือแท่งที่จุดต่ำสุด</tspan><tspan x="46.0" dy="17.6">ต่ำกว่า 2 แท่งทั้งซ้ายและขวา จะยืนยันได้</tspan><tspan x="46.0" dy="17.6">เมื่อ 2 แท่งด้านขวาปิดแล้วเท่านั้น</tspan></text><rect x="374.0" y="90.0" width="558.0" height="360.0" rx="12" fill="#111a2e" fill-opacity="1" stroke="#23314f" stroke-width="1.5"/><text x="392.0" y="120.0" font-size="17" fill="#f59e0b" text-anchor="start" font-weight="700"><tspan x="392.0" dy="0.0">สวิงหลัก vs. สัญญาณรบกวนย่อย</tspan></text><polyline points="402.9,358.1 598.6,240.6 707.4,323.8 903.1,152.6" fill="none" stroke="#f59e0b" stroke-width="2.2" stroke-opacity="1" stroke-linejoin="round" stroke-linecap="round"/><line x1="402.9" y1="340.6" x2="402.9" y2="359.4" stroke="#22c55e" stroke-width="1.6" stroke-opacity="1" stroke-linecap="round"/><rect x="396.1" y="343.7" width="13.5" height="14.4" rx="1.5" fill="#22c55e" fill-opacity="1"/><line x1="424.6" y1="325.5" x2="424.6" y2="348.3" stroke="#22c55e" stroke-width="1.6" stroke-opacity="1" stroke-linecap="round"/><rect x="417.9" y="326.0" width="13.5" height="17.6" rx="1.5" fill="#22c55e" fill-opacity="1"/><line x1="446.4" y1="310.1" x2="446.4" y2="326.0" stroke="#22c55e" stroke-width="1.6" stroke-opacity="1" stroke-linecap="round"/><rect x="439.6" y="311.1" width="13.5" height="14.9" rx="1.5" fill="#22c55e" fill-opacity="1"/><line x1="468.1" y1="299.4" x2="468.1" y2="311.3" stroke="#22c55e" stroke-width="1.6" stroke-opacity="1" stroke-linecap="round"/><rect x="461.4" y="303.0" width="13.5" height="8.1" rx="1.5" fill="#22c55e" fill-opacity="1"/><line x1="489.9" y1="302.2" x2="489.9" y2="306.9" stroke="#ef4444" stroke-width="1.6" stroke-opacity="1" stroke-linecap="round"/><rect x="483.1" y="303.0" width="13.5" height="2.5" rx="1.5" fill="#ef4444" fill-opacity="1"/><line x1="511.6" y1="304.6" x2="511.6" y2="313.1" stroke="#ef4444" stroke-width="1.6" stroke-opacity="1" stroke-linecap="round"/><rect x="504.9" y="305.5" width="13.5" height="5.8" rx="1.5" fill="#ef4444" fill-opacity="1"/><line x1="533.4" y1="301.1" x2="533.4" y2="311.3" stroke="#22c55e" stroke-width="1.6" stroke-opacity="1" stroke-linecap="round"/><rect x="526.6" y="301.1" width="13.5" height="10.2" rx="1.5" fill="#22c55e" fill-opacity="1"/><line x1="555.1" y1="270.1" x2="555.1" y2="302.8" stroke="#22c55e" stroke-width="1.6" stroke-opacity="1" stroke-linecap="round"/><rect x="548.4" y="274.4" width="13.5" height="26.8" rx="1.5" fill="#22c55e" fill-opacity="1"/><line x1="576.9" y1="260.1" x2="576.9" y2="279.2" stroke="#22c55e" stroke-width="1.6" stroke-opacity="1" stroke-linecap="round"/><rect x="570.1" y="262.3" width="13.5" height="12.0" rx="1.5" fill="#22c55e" fill-opacity="1"/><line x1="598.6" y1="240.6" x2="598.6" y2="263.6" stroke="#22c55e" stroke-width="1.6" stroke-opacity="1" stroke-linecap="round"/><rect x="591.9" y="245.2" width="13.5" height="17.2" rx="1.5" fill="#22c55e" fill-opacity="1"/><line x1="620.4" y1="243.3" x2="620.4" y2="261.6" stroke="#ef4444" stroke-width="1.6" stroke-opacity="1" stroke-linecap="round"/><rect x="613.6" y="245.2" width="13.5" height="14.1" rx="1.5" fill="#ef4444" fill-opacity="1"/><line x1="642.1" y1="257.6" x2="642.1" y2="277.4" stroke="#ef4444" stroke-width="1.6" stroke-opacity="1" stroke-linecap="round"/><rect x="635.4" y="259.2" width="13.5" height="12.1" rx="1.5" fill="#ef4444" fill-opacity="1"/><line x1="663.9" y1="270.5" x2="663.9" y2="290.8" stroke="#ef4444" stroke-width="1.6" stroke-opacity="1" stroke-linecap="round"/><rect x="657.1" y="271.3" width="13.5" height="16.1" rx="1.5" fill="#ef4444" fill-opacity="1"/><line x1="685.6" y1="286.7" x2="685.6" y2="311.8" stroke="#ef4444" stroke-width="1.6" stroke-opacity="1" stroke-linecap="round"/><rect x="678.9" y="287.4" width="13.5" height="19.9" rx="1.5" fill="#ef4444" fill-opacity="1"/><line x1="707.4" y1="306.2" x2="707.4" y2="323.8" stroke="#ef4444" stroke-width="1.6" stroke-opacity="1" stroke-linecap="round"/><rect x="700.6" y="307.3" width="13.5" height="12.4" rx="1.5" fill="#ef4444" fill-opacity="1"/><line x1="729.1" y1="294.5" x2="729.1" y2="322.1" stroke="#22c55e" stroke-width="1.6" stroke-opacity="1" stroke-linecap="round"/><rect x="722.4" y="301.0" width="13.5" height="18.6" rx="1.5" fill="#22c55e" fill-opacity="1"/><line x1="750.9" y1="270.9" x2="750.9" y2="303.0" stroke="#22c55e" stroke-width="1.6" stroke-opacity="1" stroke-linecap="round"/><rect x="744.1" y="271.7" width="13.5" height="29.3" rx="1.5" fill="#22c55e" fill-opacity="1"/><line x1="772.6" y1="225.2" x2="772.6" y2="271.7" stroke="#22c55e" stroke-width="1.6" stroke-opacity="1" stroke-linecap="round"/><rect x="765.9" y="225.2" width="13.5" height="46.6" rx="1.5" fill="#22c55e" fill-opacity="1"/><line x1="794.4" y1="211.3" x2="794.4" y2="225.2" stroke="#22c55e" stroke-width="1.6" stroke-opacity="1" stroke-linecap="round"/><rect x="787.6" y="218.3" width="13.5" height="6.9" rx="1.5" fill="#22c55e" fill-opacity="1"/><line x1="816.1" y1="217.4" x2="816.1" y2="219.7" stroke="#ef4444" stroke-width="1.6" stroke-opacity="1" stroke-linecap="round"/><rect x="809.4" y="218.3" width="13.5" height="1.5" rx="1.5" fill="#ef4444" fill-opacity="1"/><line x1="837.9" y1="218.8" x2="837.9" y2="226.9" stroke="#ef4444" stroke-width="1.6" stroke-opacity="1" stroke-linecap="round"/><rect x="831.1" y="219.5" width="13.5" height="5.5" rx="1.5" fill="#ef4444" fill-opacity="1"/><line x1="859.6" y1="213.0" x2="859.6" y2="225.2" stroke="#22c55e" stroke-width="1.6" stroke-opacity="1" stroke-linecap="round"/><rect x="852.9" y="213.0" width="13.5" height="11.9" rx="1.5" fill="#22c55e" fill-opacity="1"/><line x1="881.4" y1="173.9" x2="881.4" y2="213.0" stroke="#22c55e" stroke-width="1.6" stroke-opacity="1" stroke-linecap="round"/><rect x="874.6" y="176.0" width="13.5" height="37.0" rx="1.5" fill="#22c55e" fill-opacity="1"/><line x1="903.1" y1="152.6" x2="903.1" y2="177.7" stroke="#22c55e" stroke-width="1.6" stroke-opacity="1" stroke-linecap="round"/><rect x="896.4" y="158.8" width="13.5" height="17.3" rx="1.5" fill="#22c55e" fill-opacity="1"/><text x="468.1" y="289.4" font-size="11" fill="#5b6b88" text-anchor="middle" font-weight="700"><tspan x="468.1" dy="0.0">ย่อย</tspan></text><text x="511.6" y="335.1" font-size="11" fill="#5b6b88" text-anchor="middle" font-weight="700"><tspan x="511.6" dy="0.0">ย่อย</tspan></text><text x="794.4" y="201.3" font-size="11" fill="#5b6b88" text-anchor="middle" font-weight="700"><tspan x="794.4" dy="0.0">ย่อย</tspan></text><text x="837.9" y="248.9" font-size="11" fill="#5b6b88" text-anchor="middle" font-weight="700"><tspan x="837.9" dy="0.0">ย่อย</tspan></text><text x="598.6" y="228.6" font-size="13" fill="#f59e0b" text-anchor="middle" font-weight="700"><tspan x="598.6" dy="0.0">สวิงสูงหลัก</tspan></text><text x="707.4" y="347.8" font-size="13" fill="#f59e0b" text-anchor="middle" font-weight="700"><tspan x="707.4" dy="0.0">สวิงต่ำหลัก</tspan></text><text x="392.0" y="412.0" font-size="13" fill="#8ea0bd" text-anchor="start" font-weight="400"><tspan x="392.0" dy="0.0">สวิงหลัก = การย่อใหญ่พอจะมีความหมาย (กินสวิงก่อนหน้า</tspan><tspan x="392.0" dy="17.6">หรือย่อประมาณ 1 ใน 3 ของขา) สวิงย่อย = แค่หยุดพัก</tspan></text></svg>