<svg xmlns="http://www.w3.org/2000/svg" viewBox="0 0 960 470" width="960" height="470" font-family="Inter, 'Noto Sans Thai', Sarabun, Thonburi, 'Sukhumvit Set', 'Segoe UI', Roboto, sans-serif"><rect width="960" height="470" rx="16" fill="#0b1220"/><text x="28.0" y="44.0" font-size="24" fill="#e5ecf6" text-anchor="start" font-weight="700"><tspan x="28.0" dy="0.0">โครงสร้างใน 4 ป้าย: HH · HL · LH · LL</tspan></text><text x="28.0" y="72.0" font-size="15" fill="#8ea0bd" text-anchor="start" font-weight="400"><tspan x="28.0" dy="0.0">สวิงใหม่แต่ละจุดเทียบกับสวิงก่อนหน้าที่เป็นชนิดเดียวกัน</tspan></text><rect x="28.0" y="90.0" width="444.0" height="360.0" rx="12" fill="#111a2e" fill-opacity="1" stroke="#23314f" stroke-width="1.5"/><text x="46.0" y="120.0" font-size="16" fill="#22c55e" text-anchor="start" font-weight="700"><tspan x="46.0" dy="0.0">ขาขึ้น: Higher High + Higher Low</tspan></text><polyline points="101.7,279.9 151.1,315.4 217.0,235.6 266.5,275.5 332.4,191.3 381.8,235.6 447.8,155.9" fill="none" stroke="#22c55e" stroke-width="1.6" stroke-opacity="1" stroke-linejoin="round" stroke-linecap="round" stroke-dasharray="5 4"/><line x1="52.2" y1="330.7" x2="52.2" y2="354.1" stroke="#22c55e" stroke-width="1.6" stroke-opacity="1" stroke-linecap="round"/><rect x="47.1" y="335.4" width="10.2" height="15.4" rx="1.5" fill="#22c55e" fill-opacity="1"/><line x1="68.7" y1="307.7" x2="68.7" y2="336.6" stroke="#22c55e" stroke-width="1.6" stroke-opacity="1" stroke-linecap="round"/><rect x="63.6" y="314.4" width="10.2" height="21.0" rx="1.5" fill="#22c55e" fill-opacity="1"/><line x1="85.2" y1="295.9" x2="85.2" y2="316.6" stroke="#22c55e" stroke-width="1.6" stroke-opacity="1" stroke-linecap="round"/><rect x="80.1" y="302.0" width="10.2" height="12.5" rx="1.5" fill="#22c55e" fill-opacity="1"/><line x1="101.7" y1="279.9" x2="101.7" y2="306.5" stroke="#22c55e" stroke-width="1.6" stroke-opacity="1" stroke-linecap="round"/><rect x="96.6" y="284.4" width="10.2" height="17.6" rx="1.5" fill="#22c55e" fill-opacity="1"/><line x1="118.2" y1="282.6" x2="118.2" y2="292.1" stroke="#ef4444" stroke-width="1.6" stroke-opacity="1" stroke-linecap="round"/><rect x="113.1" y="284.4" width="10.2" height="5.4" rx="1.5" fill="#ef4444" fill-opacity="1"/><line x1="134.6" y1="284.7" x2="134.6" y2="312.4" stroke="#ef4444" stroke-width="1.6" stroke-opacity="1" stroke-linecap="round"/><rect x="129.5" y="289.7" width="10.2" height="15.9" rx="1.5" fill="#ef4444" fill-opacity="1"/><line x1="151.1" y1="302.5" x2="151.1" y2="315.4" stroke="#ef4444" stroke-width="1.6" stroke-opacity="1" stroke-linecap="round"/><rect x="146.0" y="305.6" width="10.2" height="6.8" rx="1.5" fill="#ef4444" fill-opacity="1"/><line x1="167.6" y1="294.0" x2="167.6" y2="313.2" stroke="#22c55e" stroke-width="1.6" stroke-opacity="1" stroke-linecap="round"/><rect x="162.5" y="299.8" width="10.2" height="12.6" rx="1.5" fill="#22c55e" fill-opacity="1"/><line x1="184.1" y1="276.6" x2="184.1" y2="309.6" stroke="#22c55e" stroke-width="1.6" stroke-opacity="1" stroke-linecap="round"/><rect x="179.0" y="277.5" width="10.2" height="22.3" rx="1.5" fill="#22c55e" fill-opacity="1"/><line x1="200.6" y1="247.7" x2="200.6" y2="287.3" stroke="#22c55e" stroke-width="1.6" stroke-opacity="1" stroke-linecap="round"/><rect x="195.5" y="255.8" width="10.2" height="21.6" rx="1.5" fill="#22c55e" fill-opacity="1"/><line x1="217.0" y1="235.6" x2="217.0" y2="259.4" stroke="#22c55e" stroke-width="1.6" stroke-opacity="1" stroke-linecap="round"/><rect x="211.9" y="240.6" width="10.2" height="15.2" rx="1.5" fill="#22c55e" fill-opacity="1"/><line x1="233.5" y1="238.7" x2="233.5" y2="250.8" stroke="#ef4444" stroke-width="1.6" stroke-opacity="1" stroke-linecap="round"/><rect x="228.4" y="240.6" width="10.2" height="6.3" rx="1.5" fill="#ef4444" fill-opacity="1"/><line x1="250.0" y1="246.0" x2="250.0" y2="260.9" stroke="#ef4444" stroke-width="1.6" stroke-opacity="1" stroke-linecap="round"/><rect x="244.9" y="246.9" width="10.2" height="12.8" rx="1.5" fill="#ef4444" fill-opacity="1"/><line x1="266.5" y1="253.3" x2="266.5" y2="275.5" stroke="#ef4444" stroke-width="1.6" stroke-opacity="1" stroke-linecap="round"/><rect x="261.4" y="259.7" width="10.2" height="12.5" rx="1.5" fill="#ef4444" fill-opacity="1"/><line x1="283.0" y1="249.7" x2="283.0" y2="273.4" stroke="#22c55e" stroke-width="1.6" stroke-opacity="1" stroke-linecap="round"/><rect x="277.9" y="253.1" width="10.2" height="19.1" rx="1.5" fill="#22c55e" fill-opacity="1"/><line x1="299.4" y1="230.8" x2="299.4" y2="259.1" stroke="#22c55e" stroke-width="1.6" stroke-opacity="1" stroke-linecap="round"/><rect x="294.3" y="234.6" width="10.2" height="18.5" rx="1.5" fill="#22c55e" fill-opacity="1"/><line x1="315.9" y1="200.8" x2="315.9" y2="242.8" stroke="#22c55e" stroke-width="1.6" stroke-opacity="1" stroke-linecap="round"/><rect x="310.8" y="211.5" width="10.2" height="23.1" rx="1.5" fill="#22c55e" fill-opacity="1"/><line x1="332.4" y1="191.3" x2="332.4" y2="219.9" stroke="#22c55e" stroke-width="1.6" stroke-opacity="1" stroke-linecap="round"/><rect x="327.3" y="196.6" width="10.2" height="14.9" rx="1.5" fill="#22c55e" fill-opacity="1"/><line x1="348.9" y1="195.5" x2="348.9" y2="209.2" stroke="#ef4444" stroke-width="1.6" stroke-opacity="1" stroke-linecap="round"/><rect x="343.8" y="196.6" width="10.2" height="8.2" rx="1.5" fill="#ef4444" fill-opacity="1"/><line x1="365.4" y1="198.6" x2="365.4" y2="221.4" stroke="#ef4444" stroke-width="1.6" stroke-opacity="1" stroke-linecap="round"/><rect x="360.3" y="204.8" width="10.2" height="12.6" rx="1.5" fill="#ef4444" fill-opacity="1"/><line x1="381.8" y1="215.5" x2="381.8" y2="235.6" stroke="#ef4444" stroke-width="1.6" stroke-opacity="1" stroke-linecap="round"/><rect x="376.7" y="217.4" width="10.2" height="14.5" rx="1.5" fill="#ef4444" fill-opacity="1"/><line x1="398.3" y1="212.0" x2="398.3" y2="232.9" stroke="#22c55e" stroke-width="1.6" stroke-opacity="1" stroke-linecap="round"/><rect x="393.2" y="214.9" width="10.2" height="17.0" rx="1.5" fill="#22c55e" fill-opacity="1"/><line x1="414.8" y1="180.8" x2="414.8" y2="216.5" stroke="#22c55e" stroke-width="1.6" stroke-opacity="1" stroke-linecap="round"/><rect x="409.7" y="192.2" width="10.2" height="22.7" rx="1.5" fill="#22c55e" fill-opacity="1"/><line x1="431.3" y1="168.3" x2="431.3" y2="194.2" stroke="#22c55e" stroke-width="1.6" stroke-opacity="1" stroke-linecap="round"/><rect x="426.2" y="172.8" width="10.2" height="19.4" rx="1.5" fill="#22c55e" fill-opacity="1"/><line x1="447.8" y1="155.9" x2="447.8" y2="179.1" stroke="#22c55e" stroke-width="1.6" stroke-opacity="1" stroke-linecap="round"/><rect x="442.7" y="160.8" width="10.2" height="12.0" rx="1.5" fill="#22c55e" fill-opacity="1"/><text x="101.7" y="267.9" font-size="13" fill="#8ea0bd" text-anchor="middle" font-weight="700"><tspan x="101.7" dy="0.0">H</tspan></text><text x="151.1" y="339.4" font-size="13" fill="#22c55e" text-anchor="middle" font-weight="700"><tspan x="151.1" dy="0.0">HL</tspan></text><text x="217.0" y="223.6" font-size="13" fill="#22c55e" text-anchor="middle" font-weight="700"><tspan x="217.0" dy="0.0">HH</tspan></text><text x="266.5" y="299.5" font-size="13" fill="#22c55e" text-anchor="middle" font-weight="700"><tspan x="266.5" dy="0.0">HL</tspan></text><text x="332.4" y="179.3" font-size="13" fill="#22c55e" text-anchor="middle" font-weight="700"><tspan x="332.4" dy="0.0">HH</tspan></text><text x="381.8" y="259.6" font-size="13" fill="#22c55e" text-anchor="middle" font-weight="700"><tspan x="381.8" dy="0.0">HL</tspan></text><text x="447.8" y="143.9" font-size="13" fill="#22c55e" text-anchor="middle" font-weight="700"><tspan x="447.8" dy="0.0">HH</tspan></text><text x="46.0" y="410.0" font-size="13" fill="#8ea0bd" text-anchor="start" font-weight="400"><tspan x="46.0" dy="0.0">ผู้ซื้อดันจุดสูงขึ้นไปเรื่อย ๆ</tspan><tspan x="46.0" dy="17.6">และรับของเร็วขึ้นทุกครั้งที่ย่อ</tspan></text><rect x="488.0" y="90.0" width="444.0" height="360.0" rx="12" fill="#111a2e" fill-opacity="1" stroke="#23314f" stroke-width="1.5"/><text x="506.0" y="120.0" font-size="16" fill="#ef4444" text-anchor="start" font-weight="700"><tspan x="506.0" dy="0.0">ขาลง: Lower High + Lower Low</tspan></text><polyline points="561.7,228.9 611.1,193.2 677.0,273.6 726.5,233.4 792.4,318.4 841.8,282.6 907.8,354.1" fill="none" stroke="#ef4444" stroke-width="1.6" stroke-opacity="1" stroke-linejoin="round" stroke-linecap="round" stroke-dasharray="5 4"/><line x1="512.2" y1="155.9" x2="512.2" y2="182.0" stroke="#ef4444" stroke-width="1.6" stroke-opacity="1" stroke-linecap="round"/><rect x="507.1" y="157.4" width="10.2" height="20.2" rx="1.5" fill="#ef4444" fill-opacity="1"/><line x1="528.7" y1="176.5" x2="528.7" y2="200.4" stroke="#ef4444" stroke-width="1.6" stroke-opacity="1" stroke-linecap="round"/><rect x="523.6" y="177.6" width="10.2" height="18.6" rx="1.5" fill="#ef4444" fill-opacity="1"/><line x1="545.2" y1="190.9" x2="545.2" y2="212.4" stroke="#ef4444" stroke-width="1.6" stroke-opacity="1" stroke-linecap="round"/><rect x="540.1" y="196.2" width="10.2" height="11.1" rx="1.5" fill="#ef4444" fill-opacity="1"/><line x1="561.7" y1="202.3" x2="561.7" y2="228.9" stroke="#ef4444" stroke-width="1.6" stroke-opacity="1" stroke-linecap="round"/><rect x="556.6" y="207.3" width="10.2" height="17.2" rx="1.5" fill="#ef4444" fill-opacity="1"/><line x1="578.2" y1="218.4" x2="578.2" y2="225.4" stroke="#22c55e" stroke-width="1.6" stroke-opacity="1" stroke-linecap="round"/><rect x="573.1" y="219.0" width="10.2" height="5.5" rx="1.5" fill="#22c55e" fill-opacity="1"/><line x1="594.6" y1="195.8" x2="594.6" y2="225.5" stroke="#22c55e" stroke-width="1.6" stroke-opacity="1" stroke-linecap="round"/><rect x="589.5" y="202.5" width="10.2" height="16.4" rx="1.5" fill="#22c55e" fill-opacity="1"/><line x1="611.1" y1="193.2" x2="611.1" y2="203.9" stroke="#22c55e" stroke-width="1.6" stroke-opacity="1" stroke-linecap="round"/><rect x="606.0" y="196.1" width="10.2" height="6.4" rx="1.5" fill="#22c55e" fill-opacity="1"/><line x1="627.6" y1="195.3" x2="627.6" y2="219.5" stroke="#ef4444" stroke-width="1.6" stroke-opacity="1" stroke-linecap="round"/><rect x="622.5" y="196.1" width="10.2" height="15.9" rx="1.5" fill="#ef4444" fill-opacity="1"/><line x1="644.1" y1="210.7" x2="644.1" y2="235.5" stroke="#ef4444" stroke-width="1.6" stroke-opacity="1" stroke-linecap="round"/><rect x="639.0" y="212.0" width="10.2" height="17.6" rx="1.5" fill="#ef4444" fill-opacity="1"/><line x1="660.6" y1="223.6" x2="660.6" y2="254.3" stroke="#ef4444" stroke-width="1.6" stroke-opacity="1" stroke-linecap="round"/><rect x="655.5" y="229.6" width="10.2" height="22.2" rx="1.5" fill="#ef4444" fill-opacity="1"/><line x1="677.0" y1="250.6" x2="677.0" y2="273.6" stroke="#ef4444" stroke-width="1.6" stroke-opacity="1" stroke-linecap="round"/><rect x="671.9" y="251.8" width="10.2" height="16.8" rx="1.5" fill="#ef4444" fill-opacity="1"/><line x1="693.5" y1="254.4" x2="693.5" y2="270.6" stroke="#22c55e" stroke-width="1.6" stroke-opacity="1" stroke-linecap="round"/><rect x="688.4" y="257.8" width="10.2" height="10.8" rx="1.5" fill="#22c55e" fill-opacity="1"/><line x1="710.0" y1="239.9" x2="710.0" y2="264.1" stroke="#22c55e" stroke-width="1.6" stroke-opacity="1" stroke-linecap="round"/><rect x="704.9" y="244.1" width="10.2" height="13.7" rx="1.5" fill="#22c55e" fill-opacity="1"/><line x1="726.5" y1="233.4" x2="726.5" y2="246.1" stroke="#22c55e" stroke-width="1.6" stroke-opacity="1" stroke-linecap="round"/><rect x="721.4" y="236.8" width="10.2" height="7.3" rx="1.5" fill="#22c55e" fill-opacity="1"/><line x1="743.0" y1="235.5" x2="743.0" y2="255.5" stroke="#ef4444" stroke-width="1.6" stroke-opacity="1" stroke-linecap="round"/><rect x="737.9" y="236.8" width="10.2" height="16.8" rx="1.5" fill="#ef4444" fill-opacity="1"/><line x1="759.4" y1="243.5" x2="759.4" y2="279.1" stroke="#ef4444" stroke-width="1.6" stroke-opacity="1" stroke-linecap="round"/><rect x="754.3" y="253.6" width="10.2" height="24.4" rx="1.5" fill="#ef4444" fill-opacity="1"/><line x1="775.9" y1="270.1" x2="775.9" y2="305.8" stroke="#ef4444" stroke-width="1.6" stroke-opacity="1" stroke-linecap="round"/><rect x="770.8" y="278.0" width="10.2" height="24.0" rx="1.5" fill="#ef4444" fill-opacity="1"/><line x1="792.4" y1="298.5" x2="792.4" y2="318.4" stroke="#ef4444" stroke-width="1.6" stroke-opacity="1" stroke-linecap="round"/><rect x="787.3" y="301.9" width="10.2" height="11.1" rx="1.5" fill="#ef4444" fill-opacity="1"/><line x1="808.9" y1="302.2" x2="808.9" y2="315.4" stroke="#22c55e" stroke-width="1.6" stroke-opacity="1" stroke-linecap="round"/><rect x="803.8" y="303.5" width="10.2" height="9.6" rx="1.5" fill="#22c55e" fill-opacity="1"/><line x1="825.4" y1="293.5" x2="825.4" y2="304.8" stroke="#22c55e" stroke-width="1.6" stroke-opacity="1" stroke-linecap="round"/><rect x="820.3" y="296.3" width="10.2" height="7.2" rx="1.5" fill="#22c55e" fill-opacity="1"/><line x1="841.8" y1="282.6" x2="841.8" y2="298.3" stroke="#22c55e" stroke-width="1.6" stroke-opacity="1" stroke-linecap="round"/><rect x="836.7" y="285.6" width="10.2" height="10.7" rx="1.5" fill="#22c55e" fill-opacity="1"/><line x1="858.3" y1="284.7" x2="858.3" y2="301.1" stroke="#ef4444" stroke-width="1.6" stroke-opacity="1" stroke-linecap="round"/><rect x="853.2" y="285.6" width="10.2" height="14.4" rx="1.5" fill="#ef4444" fill-opacity="1"/><line x1="874.8" y1="297.0" x2="874.8" y2="330.9" stroke="#ef4444" stroke-width="1.6" stroke-opacity="1" stroke-linecap="round"/><rect x="869.7" y="300.0" width="10.2" height="22.3" rx="1.5" fill="#ef4444" fill-opacity="1"/><line x1="891.3" y1="320.3" x2="891.3" y2="337.9" stroke="#ef4444" stroke-width="1.6" stroke-opacity="1" stroke-linecap="round"/><rect x="886.2" y="322.3" width="10.2" height="12.9" rx="1.5" fill="#ef4444" fill-opacity="1"/><line x1="907.8" y1="331.4" x2="907.8" y2="354.1" stroke="#ef4444" stroke-width="1.6" stroke-opacity="1" stroke-linecap="round"/><rect x="902.7" y="335.2" width="10.2" height="14.4" rx="1.5" fill="#ef4444" fill-opacity="1"/><text x="561.7" y="252.9" font-size="13" fill="#8ea0bd" text-anchor="middle" font-weight="700"><tspan x="561.7" dy="0.0">L</tspan></text><text x="611.1" y="181.2" font-size="13" fill="#ef4444" text-anchor="middle" font-weight="700"><tspan x="611.1" dy="0.0">LH</tspan></text><text x="677.0" y="297.6" font-size="13" fill="#ef4444" text-anchor="middle" font-weight="700"><tspan x="677.0" dy="0.0">LL</tspan></text><text x="726.5" y="221.4" font-size="13" fill="#ef4444" text-anchor="middle" font-weight="700"><tspan x="726.5" dy="0.0">LH</tspan></text><text x="792.4" y="342.4" font-size="13" fill="#ef4444" text-anchor="middle" font-weight="700"><tspan x="792.4" dy="0.0">LL</tspan></text><text x="841.8" y="270.6" font-size="13" fill="#ef4444" text-anchor="middle" font-weight="700"><tspan x="841.8" dy="0.0">LH</tspan></text><text x="907.8" y="378.1" font-size="13" fill="#ef4444" text-anchor="middle" font-weight="700"><tspan x="907.8" dy="0.0">LL</tspan></text><text x="506.0" y="410.0" font-size="13" fill="#8ea0bd" text-anchor="start" font-weight="400"><tspan x="506.0" dy="0.0">ผู้ขายกดจุดต่ำลงไปเรื่อย ๆ</tspan><tspan x="506.0" dy="17.6">และขายเร็วขึ้นทุกครั้งที่เด้ง</tspan></text></svg>