<svg xmlns="http://www.w3.org/2000/svg" viewBox="0 0 960 545" width="960" height="545" font-family="Inter, 'Noto Sans Thai', Sarabun, Thonburi, 'Sukhumvit Set', 'Segoe UI', Roboto, sans-serif"><rect width="960" height="545" rx="16" fill="#0b1220"/><text x="28.0" y="44.0" font-size="24" fill="#e5ecf6" text-anchor="start" font-weight="700"><tspan x="28.0" dy="0.0">Call wall and put wall</tspan></text><text x="28.0" y="72.0" font-size="15" fill="#8ea0bd" text-anchor="start" font-weight="400"><tspan x="28.0" dy="0.0">Open interest by strike (same synthetic chain). The biggest call and put strikes often act as a ceiling and a floor.</tspan></text><rect x="28.0" y="90.0" width="904.0" height="435.0" rx="12" fill="#111a2e" fill-opacity="1" stroke="#23314f" stroke-width="1.5"/><text x="460.0" y="116.0" font-size="13" fill="#ef4444" text-anchor="end" font-weight="700"><tspan x="460.0" dy="0.0">← put OI</tspan></text><text x="500.0" y="116.0" font-size="13" fill="#22c55e" text-anchor="start" font-weight="700"><tspan x="500.0" dy="0.0">call OI →</tspan></text><rect x="450.0" y="126.0" width="0.0" height="22.0" rx="3" fill="#ef4444" fill-opacity="0.5"/><rect x="510.0" y="126.0" width="48.0" height="22.0" rx="3" fill="#22c55e" fill-opacity="0.5"/><text x="480.0" y="142.0" font-size="12" fill="#8ea0bd" text-anchor="middle" font-weight="400"><tspan x="480.0" dy="0.0">5300</tspan></text><rect x="450.0" y="154.0" width="0.0" height="22.0" rx="3" fill="#ef4444" fill-opacity="0.5"/><rect x="510.0" y="154.0" width="60.0" height="22.0" rx="3" fill="#22c55e" fill-opacity="0.5"/><text x="480.0" y="170.0" font-size="12" fill="#8ea0bd" text-anchor="middle" font-weight="400"><tspan x="480.0" dy="0.0">5250</tspan></text><rect x="450.0" y="182.0" width="0.0" height="22.0" rx="3" fill="#ef4444" fill-opacity="0.5"/><rect x="510.0" y="182.0" width="180.0" height="22.0" rx="3" fill="#22c55e" fill-opacity="0.5"/><text x="480.0" y="198.0" font-size="12" fill="#8ea0bd" text-anchor="middle" font-weight="400"><tspan x="480.0" dy="0.0">5200</tspan></text><rect x="450.0" y="210.0" width="0.0" height="22.0" rx="3" fill="#ef4444" fill-opacity="0.5"/><rect x="510.0" y="210.0" width="120.0" height="22.0" rx="3" fill="#22c55e" fill-opacity="0.5"/><text x="480.0" y="226.0" font-size="12" fill="#8ea0bd" text-anchor="middle" font-weight="400"><tspan x="480.0" dy="0.0">5150</tspan></text><rect x="450.0" y="238.0" width="0.0" height="22.0" rx="3" fill="#ef4444" fill-opacity="0.5"/><rect x="510.0" y="238.0" width="280.0" height="22.0" rx="3" fill="#22c55e" fill-opacity="0.9"/><text x="480.0" y="254.0" font-size="12" fill="#8ea0bd" text-anchor="middle" font-weight="700"><tspan x="480.0" dy="0.0">5100</tspan></text><text x="800.0" y="254.0" font-size="13" fill="#22c55e" text-anchor="start" font-weight="700"><tspan x="800.0" dy="0.0">CALL WALL</tspan></text><rect x="410.0" y="266.0" width="40.0" height="22.0" rx="3" fill="#ef4444" fill-opacity="0.5"/><rect x="510.0" y="266.0" width="152.0" height="22.0" rx="3" fill="#22c55e" fill-opacity="0.5"/><text x="480.0" y="282.0" font-size="12" fill="#8ea0bd" text-anchor="middle" font-weight="400"><tspan x="480.0" dy="0.0">5050</tspan></text><rect x="330.0" y="294.0" width="120.0" height="22.0" rx="3" fill="#ef4444" fill-opacity="0.5"/><rect x="510.0" y="294.0" width="120.0" height="22.0" rx="3" fill="#22c55e" fill-opacity="0.5"/><text x="480.0" y="310.0" font-size="12" fill="#ffffff" text-anchor="middle" font-weight="700"><tspan x="480.0" dy="0.0">5000</tspan></text><rect x="454.0" y="293.0" width="52.0" height="24.0" rx="4" fill="none" fill-opacity="1" stroke="#ffffff" stroke-width="1.2"/><rect x="290.0" y="322.0" width="160.0" height="22.0" rx="3" fill="#ef4444" fill-opacity="0.5"/><rect x="510.0" y="322.0" width="48.0" height="22.0" rx="3" fill="#22c55e" fill-opacity="0.5"/><text x="480.0" y="338.0" font-size="12" fill="#8ea0bd" text-anchor="middle" font-weight="400"><tspan x="480.0" dy="0.0">4950</tspan></text><rect x="150.0" y="350.0" width="300.0" height="22.0" rx="3" fill="#ef4444" fill-opacity="0.9"/><rect x="510.0" y="350.0" width="32.0" height="22.0" rx="3" fill="#22c55e" fill-opacity="0.5"/><text x="480.0" y="366.0" font-size="12" fill="#8ea0bd" text-anchor="middle" font-weight="700"><tspan x="480.0" dy="0.0">4900</tspan></text><text x="140.0" y="366.0" font-size="13" fill="#ef4444" text-anchor="end" font-weight="700"><tspan x="140.0" dy="0.0">PUT WALL</tspan></text><rect x="330.0" y="378.0" width="120.0" height="22.0" rx="3" fill="#ef4444" fill-opacity="0.5"/><rect x="510.0" y="378.0" width="0.0" height="22.0" rx="3" fill="#22c55e" fill-opacity="0.5"/><text x="480.0" y="394.0" font-size="12" fill="#8ea0bd" text-anchor="middle" font-weight="400"><tspan x="480.0" dy="0.0">4850</tspan></text><rect x="270.0" y="406.0" width="180.0" height="22.0" rx="3" fill="#ef4444" fill-opacity="0.5"/><rect x="510.0" y="406.0" width="0.0" height="22.0" rx="3" fill="#22c55e" fill-opacity="0.5"/><text x="480.0" y="422.0" font-size="12" fill="#8ea0bd" text-anchor="middle" font-weight="400"><tspan x="480.0" dy="0.0">4800</tspan></text><rect x="378.0" y="434.0" width="72.0" height="22.0" rx="3" fill="#ef4444" fill-opacity="0.5"/><rect x="510.0" y="434.0" width="0.0" height="22.0" rx="3" fill="#22c55e" fill-opacity="0.5"/><text x="480.0" y="450.0" font-size="12" fill="#8ea0bd" text-anchor="middle" font-weight="400"><tspan x="480.0" dy="0.0">4750</tspan></text><rect x="350.0" y="462.0" width="100.0" height="22.0" rx="3" fill="#ef4444" fill-opacity="0.5"/><rect x="510.0" y="462.0" width="0.0" height="22.0" rx="3" fill="#22c55e" fill-opacity="0.5"/><text x="480.0" y="478.0" font-size="12" fill="#8ea0bd" text-anchor="middle" font-weight="400"><tspan x="480.0" dy="0.0">4700</tspan></text><text x="48.0" y="512.0" font-size="13" fill="#f59e0b" text-anchor="start" font-weight="600"><tspan x="48.0" dy="0.0">Spot 5,000 sits between the put wall (4,900) and the call wall (5,100): a likely range while positioning stays the same.</tspan></text></svg>